<svg width="44" height="44" viewBox="0 0 44 44" fill="none" xmlns="http://www.w3.org/2000/svg">
  <g id="组件 6">
    <path id="矩形背景" d="M21.5 5C34.625 5 39 9.375 39 22.5C39 35.625 34.625 40 21.5 40C8.375 40 4 35.625 4 22.5C4 9.375 8.375 5 21.5 5Z" fill="#9097A5"/>
    <path id="图标" d="M30 17H14C13.45 17 13 17.45 13 18V26C13 26.55 13.45 27 14 27H30C30.55 27 31 26.55 31 26V18C31 17.45 30.55 17 30 17ZM22 25C20.07 25 18.5 23.43 18.5 21.5C18.5 19.57 20.07 18 22 18C23.93 18 25.5 19.57 25.5 21.5C25.5 23.43 23.93 25 22 25ZM22 19.5C20.9 19.5 20 20.4 20 21.5C20 22.6 20.9 23.5 22 23.5C23.1 23.5 24 22.6 24 21.5C24 20.4 23.1 19.5 22 19.5Z" fill="white"/>
  </g>
</svg>
