<svg width="44" height="44" viewBox="0 0 44 44" fill="none" xmlns="http://www.w3.org/2000/svg">
  <rect width="44" height="44" rx="4" fill="#F0F0F0"/>
  <path d="M22 14C17.6 14 14 17.6 14 22C14 26.4 17.6 30 22 30C26.4 30 30 26.4 30 22C30 17.6 26.4 14 22 14ZM26 23H23V26C23 26.55 22.55 27 22 27C21.45 27 21 26.55 21 26V23H18C17.45 23 17 22.55 17 22C17 21.45 17.45 21 18 21H21V18C21 17.45 21.45 17 22 17C22.55 17 23 17.45 23 18V21H26C26.55 21 27 21.45 27 22C27 22.55 26.55 23 26 23Z" fill="#9097A5"/>
</svg>
